<svg fill="none" xmlns="http://www.w3.org/2000/svg" viewBox="0 49 225 225">
    <rect y="49" width="225" height="225" rx="29" fill="white"></rect>
    <path
        d="M77.0783 224.98C67.2516 224.98 58.4516 222.413 50.6783 217.28C43.0516 212 36.9649 204.813 32.4183 195.72C27.8716 186.48 25.5983 176.067 25.5983 164.48C25.5983 152.6 27.8716 142.113 32.4183 133.02C36.9649 123.927 43.1983 116.813 51.1183 111.68C59.0383 106.4 68.0583 103.76 78.1783 103.76C83.7516 103.76 88.8116 104.567 93.3583 106.18C98.0516 107.793 102.158 110.067 105.678 113C109.198 115.787 112.205 119.087 114.698 122.9C117.192 126.567 119.025 130.527 120.198 134.78L112.938 133.9V106.18H147.918V223H112.278V194.84L120.198 194.62C119.025 198.727 117.118 202.613 114.478 206.28C111.838 209.947 108.612 213.173 104.798 215.96C100.985 218.747 96.7316 220.947 92.0383 222.56C87.3449 224.173 82.3583 224.98 77.0783 224.98ZM86.7583 195.28C92.185 195.28 96.8783 194.033 100.838 191.54C104.798 189.047 107.878 185.527 110.078 180.98C112.278 176.287 113.378 170.787 113.378 164.48C113.378 158.173 112.278 152.747 110.078 148.2C107.878 143.507 104.798 139.913 100.838 137.42C96.8783 134.78 92.185 133.46 86.7583 133.46C81.4783 133.46 76.8583 134.78 72.8983 137.42C69.0849 139.913 66.0783 143.507 63.8783 148.2C61.6783 152.747 60.5783 158.173 60.5783 164.48C60.5783 170.787 61.6783 176.287 63.8783 180.98C66.0783 185.527 69.0849 189.047 72.8983 191.54C76.8583 194.033 81.4783 195.28 86.7583 195.28ZM178.318 225.42C172.304 225.42 167.611 223.733 164.238 220.36C161.011 216.987 159.398 212.147 159.398 205.84C159.398 199.973 161.158 195.207 164.678 191.54C168.198 187.873 172.744 186.04 178.318 186.04C184.331 186.04 189.024 187.8 192.398 191.32C195.771 194.693 197.458 199.533 197.458 205.84C197.458 211.56 195.698 216.253 192.178 219.92C188.658 223.587 184.038 225.42 178.318 225.42Z"
        fill="black"></path>
</svg>